<svg width="187" height="38" viewBox="0 0 187 38" fill="none" xmlns="http://www.w3.org/2000/svg">
<path d="M18.1651 18.1651C16.0803 15.672 11.3191 9.59617 11.3191 5.45194C11.3191 0.124745 16.3373 0 19 0C21.6627 0 26.6809 0.124745 26.6809 5.45194C26.6809 9.59617 21.9197 15.672 19.8349 18.1651C22.328 16.0803 28.4038 11.3191 32.5481 11.3191C37.8753 11.3191 38 16.3373 38 19C38 21.6627 37.8753 26.6809 32.5481 26.6809C28.4038 26.6809 22.328 21.9197 19.8349 19.8349C21.9197 22.328 26.6809 28.4038 26.6809 32.5481C26.6809 37.8753 21.6627 38 19 38C16.3373 38 11.3191 37.8753 11.3191 32.5481C11.3191 28.4038 16.0803 22.328 18.1651 19.8349C15.672 21.9197 9.59616 26.6809 5.45194 26.6809C0.124746 26.6809 4.52131e-07 21.6627 0 19C0 16.3373 0.124745 11.3191 5.45194 11.3191C9.59617 11.3191 15.672 16.0803 18.1651 18.1651Z" fill="#33A58E"/>
<path d="M68.7486 30.3064C69.2189 30.7486 69.8527 30.9373 70.5797 30.9373C71.2924 30.9373 71.9168 30.7455 72.4007 30.3157C72.8963 29.8756 73.1257 29.2765 73.1257 28.5807V8.35662C73.1257 7.66077 72.8963 7.06173 72.4007 6.62158C71.9168 6.19183 71.2924 6 70.5797 6C69.8527 6 69.2189 6.18871 68.7486 6.63093C68.278 7.07345 68.065 7.66961 68.065 8.35662V28.5807C68.065 29.2677 68.278 29.8639 68.7486 30.3064Z" fill="#2B57A2"/>
<path d="M50.8424 29.6955L50.8399 29.6942C49.3026 28.8604 48.1025 27.6721 47.2469 26.1377L47.2429 26.1306C46.4082 24.5725 46 22.7559 46 20.6967V9.88355C46 9.18771 46.2294 8.58866 46.725 8.14851C47.2089 7.71876 47.8332 7.52693 48.5459 7.52693C49.2613 7.52693 49.8858 7.73083 50.3676 8.18011C50.8759 8.6129 51.1231 9.19792 51.1231 9.88355V20.7902C51.1231 22.7751 51.5946 24.2217 52.4663 25.2038C53.3294 26.1762 54.5855 26.6915 56.3124 26.6915C58.0165 26.6915 59.2632 26.1774 60.1273 25.2038C61.0216 24.1986 61.5018 22.7498 61.5018 20.7902V9.88355C61.5018 9.20259 61.735 8.61671 62.2262 8.1802C62.726 7.73373 63.3579 7.52693 64.0789 7.52693C64.7916 7.52693 65.4159 7.71876 65.8998 8.14851C66.3955 8.58866 66.6249 9.18771 66.6249 9.88355V20.6967C66.6249 22.6995 66.1933 24.4868 65.3158 26.044C64.4593 27.6007 63.2375 28.8094 61.6598 29.6632C60.0807 30.5178 58.2623 30.9373 56.2189 30.9373C54.1975 30.9373 52.4005 30.5287 50.8424 29.6955Z" fill="#2B57A2"/>
<path d="M78.651 29.4586C77.6025 28.4343 77.1008 27.0518 77.1008 25.371V18.566H76.3093C75.6114 18.566 74.9964 18.4029 74.513 18.0272C74.0188 17.6432 73.7634 17.1164 73.7634 16.4899C73.7634 15.8607 73.9943 15.3223 74.4712 14.9299L74.4817 14.9212C74.9676 14.5436 75.5949 14.3825 76.3093 14.3825H77.1008V10.164C77.1008 9.46817 77.3302 8.86912 77.8258 8.42897C78.3097 7.99922 78.934 7.80739 79.6467 7.80739C80.3738 7.80739 81.0076 7.9961 81.4779 8.43832C81.9485 8.88084 82.1615 9.477 82.1615 10.164V14.3825H84.6684C85.378 14.3825 86.0004 14.5417 86.4701 14.9255C86.9666 15.3138 87.2144 15.8525 87.2144 16.4899C87.2144 17.1142 86.9608 17.6394 86.4701 18.0231C86.0004 18.4069 85.378 18.566 84.6684 18.566H82.1615V25.7138C82.1615 26.0643 82.2603 26.293 82.4179 26.4538C82.6008 26.6202 82.8565 26.7227 83.2337 26.7227C83.5601 26.7227 83.8175 26.6778 84.0172 26.6025C84.2424 26.5047 84.4836 26.3444 84.7394 26.1075C85.3149 25.5556 85.9291 25.1957 86.5711 25.1957C87.0523 25.1957 87.501 25.4068 87.9088 25.7419C88.3436 26.0953 88.5868 26.5615 88.5868 27.1161C88.5868 27.6351 88.3946 28.1353 88.0633 28.6088C87.549 29.3554 86.8306 29.9281 85.9289 30.3335C85.0261 30.7394 84.0208 30.9373 82.9218 30.9373C81.1694 30.9373 79.7282 30.4648 78.6589 29.4661L78.651 29.4586Z" fill="#2B57A2"/>
<path d="M101.053 15.3065C100.573 14.9237 99.9974 14.7323 99.2295 14.7323H98.5575C97.5016 14.7323 96.5416 15.0194 95.5817 15.4979C95.5071 15.5425 95.4302 15.5871 95.3521 15.6324C94.9274 15.8788 94.4661 16.1463 94.1418 16.5505C94.0458 15.9763 93.8538 15.4022 93.4698 15.0194C92.9898 14.6366 92.4139 14.4452 91.6459 14.4452C90.878 14.4452 90.302 14.6366 89.918 15.0194C89.4381 15.4979 89.2461 16.072 89.2461 16.7419V28.7034C89.2461 29.3732 89.4381 29.9474 89.918 30.4258C90.398 30.8086 90.974 31 91.7419 31C92.5099 31 93.0858 30.8086 93.5658 30.4258C94.0458 30.0431 94.2378 29.4689 94.2378 28.7034V23.2489C94.2378 21.9092 94.6217 20.7609 95.2937 19.9954C96.0617 19.2299 97.0216 18.8471 98.2695 18.8471H99.3255C100.093 18.8471 100.669 18.6557 101.149 18.3686C101.629 17.9859 101.917 17.4117 101.917 16.8376C101.821 16.1677 101.533 15.5936 101.053 15.3065Z" fill="#2B57A2"/>
<path fill-rule="evenodd" clip-rule="evenodd" d="M104.557 30.2406L104.56 30.2421C105.63 30.7097 106.842 30.9373 108.187 30.9373C110.178 30.9373 111.822 30.4609 113.067 29.4683C113.175 29.8275 113.375 30.1407 113.678 30.39C114.149 30.777 114.773 30.9373 115.485 30.9373C116.186 30.9373 116.801 30.7619 117.268 30.3526C117.763 29.938 118 29.3697 118 28.7053V20.6967C118 18.6511 117.246 17.0082 115.725 15.8272C114.239 14.6367 112.227 14.0709 109.746 14.0709C108.437 14.0709 107.188 14.2317 106 14.5555C104.815 14.8783 103.812 15.3256 103.004 15.9082L103.002 15.9098C102.376 16.367 101.991 16.9557 101.991 17.674C101.991 18.1142 102.156 18.5185 102.439 18.8785L102.444 18.8859L102.45 18.8931C102.877 19.3942 103.41 19.6879 104.038 19.6879C104.531 19.6879 105.064 19.4995 105.618 19.1896L105.628 19.1834C106.766 18.5089 108.143 18.1609 109.777 18.1609C110.854 18.1609 111.596 18.406 112.079 18.8218C112.53 19.2102 112.791 19.7747 112.813 20.5838C111.689 20.0146 110.326 19.7424 108.748 19.7424C106.501 19.7424 104.655 20.2123 103.257 21.2033L103.254 21.2055C101.861 22.2093 101.149 23.5807 101.149 25.2775C101.149 26.387 101.446 27.3878 102.045 28.2635L102.049 28.2696L102.054 28.2756C102.671 29.121 103.512 29.774 104.557 30.2406ZM109.154 27.0966C110.424 27.0966 111.349 26.9037 111.976 26.5646C112.601 26.2171 112.846 25.7928 112.846 25.2775C112.846 24.8149 112.612 24.4062 111.974 24.0516C111.323 23.6905 110.416 23.4896 109.216 23.4896C108.143 23.4896 107.375 23.6794 106.86 24.0041C106.398 24.3076 106.179 24.714 106.179 25.2775C106.179 25.8414 106.399 26.2624 106.868 26.5873C107.36 26.9074 108.103 27.0966 109.154 27.0966Z" fill="#2B57A2"/>
<path d="M140.305 7.53077C139.011 7.53077 137.8 7.83126 136.681 8.43288L136.677 8.43487C135.758 8.93856 134.955 9.63361 134.267 10.5113C133.562 9.65178 132.745 8.96798 131.814 8.46691C130.716 7.84389 129.535 7.53077 128.278 7.53077C125.753 7.53077 123.711 8.24838 122.216 9.7356C120.721 11.2228 120 13.2544 120 15.7665V28.6375C120 29.3351 120.231 29.9356 120.73 30.3769C121.217 30.8077 121.846 31 122.563 31C123.281 31 123.909 30.8077 124.396 30.3769L124.398 30.3758C124.906 29.9231 125.158 29.3294 125.158 28.6375V15.7665C125.158 14.2204 125.449 13.2305 125.92 12.6771L125.925 12.6716C126.382 12.1199 127.173 11.7873 128.435 11.7873C129.508 11.7873 130.292 12.1363 130.855 12.8007C131.428 13.4775 131.744 14.4459 131.744 15.7665V28.6375C131.744 29.3262 131.959 29.9239 132.432 30.3675L132.437 30.3722L132.443 30.3769C132.93 30.8077 133.558 31 134.276 31C134.993 31 135.622 30.8077 136.109 30.3769C136.608 29.9356 136.839 29.3351 136.839 28.6375V15.7665C136.839 14.3978 137.148 13.4231 137.696 12.7714C138.255 12.13 139.049 11.7873 140.148 11.7873C141.41 11.7873 142.202 12.1199 142.658 12.6716L142.663 12.6771C143.135 13.2305 143.426 14.2204 143.426 15.7665V28.6375C143.426 29.3351 143.657 29.9356 144.156 30.3769C144.643 30.8077 145.271 31 145.989 31C146.706 31 147.335 30.8077 147.822 30.3769L147.823 30.3758C148.332 29.9231 148.583 29.3294 148.583 28.6375V15.7665C148.583 13.2544 147.862 11.2228 146.367 9.7356C144.872 8.24838 142.83 7.53077 140.305 7.53077Z" fill="#33A58E"/>
<path fill-rule="evenodd" clip-rule="evenodd" d="M149.242 22.6706C149.242 24.3284 149.615 25.8024 150.378 27.0756L150.384 27.0842C151.169 28.3345 152.278 29.3002 153.695 29.9827C155.114 30.6665 156.76 31 158.619 31C160.002 31 161.307 30.8171 162.53 30.4479C163.748 30.0797 164.825 29.5465 165.754 28.844C166.296 28.4633 166.583 27.9219 166.583 27.2629C166.583 26.6914 166.334 26.1876 165.906 25.7618C165.51 25.3684 165.047 25.119 164.522 25.119C163.997 25.119 163.371 25.3957 162.692 25.818L162.69 25.8193C161.59 26.5106 160.241 26.8685 158.619 26.8685C157.058 26.8685 155.952 26.5848 155.232 26.086C154.674 25.6712 154.336 25.096 154.24 24.3146H163.172C164.413 24.3146 165.443 24.0287 166.191 23.3857C166.97 22.734 167.337 21.8153 167.337 20.7024C167.337 19.4086 166.935 18.251 166.135 17.2481C165.361 16.2309 164.279 15.4549 162.917 14.9082C161.57 14.3592 160.03 14.0912 158.305 14.0912C155.498 14.0912 153.249 14.8229 151.625 16.3488L151.622 16.3512C150.016 17.8814 149.242 20.0113 149.242 22.6706ZM161.409 18.7938L161.414 18.796C162.14 19.1571 162.399 19.5876 162.399 20.0776C162.399 20.2783 162.36 20.3672 162.336 20.4027C162.322 20.41 162.296 20.4211 162.252 20.4319C162.177 20.4507 162.068 20.4642 161.916 20.4642H154.316C154.422 19.8729 154.735 19.3935 155.265 19.0041C155.971 18.501 156.967 18.2227 158.305 18.2227C159.667 18.2227 160.689 18.4264 161.409 18.7938Z" fill="#33A58E"/>
<path fill-rule="evenodd" clip-rule="evenodd" d="M168.815 27.0411C169.574 28.3291 170.627 29.3205 171.965 30.0083L171.974 30.0127C173.327 30.675 174.858 31 176.555 31C178.725 31 180.536 30.393 181.953 29.1609C182.043 29.6366 182.266 30.0503 182.635 30.3769C183.122 30.8077 183.751 31 184.468 31C185.177 31 185.798 30.8229 186.269 30.4093L186.27 30.4081C186.773 29.9635 187 29.3498 187 28.6375V8.36254C187 7.65658 186.776 7.04885 186.27 6.6225C185.8 6.18893 185.179 6 184.468 6C183.751 6 183.122 6.19231 182.635 6.62314C182.136 7.06424 181.905 7.66527 181.905 8.36254L181.878 15.8911C181.311 15.4212 180.716 15.0434 180.09 14.7614C179.129 14.3069 177.975 14.0912 176.649 14.0912C174.851 14.0912 173.264 14.4255 171.905 15.1126C170.545 15.8004 169.489 16.7935 168.749 18.0868L168.748 18.0892C168.029 19.3622 167.68 20.8536 167.68 22.5456C167.68 24.2428 168.053 25.747 168.815 27.0411ZM180.684 25.6521C179.878 26.3807 178.733 26.7748 177.183 26.7748C175.746 26.7748 174.689 26.3854 173.946 25.6639C173.204 24.9437 172.806 23.9263 172.806 22.5456C172.806 21.165 173.204 20.1475 173.946 19.4273C174.689 18.7058 175.746 18.3165 177.183 18.3165C178.733 18.3165 179.878 18.7105 180.684 19.4391C181.483 20.1618 181.905 21.1754 181.905 22.5456C181.905 23.9158 181.483 24.9294 180.684 25.6521Z" fill="#33A58E"/>
</svg>
